<svg xmlns="http://www.w3.org/2000/svg" width="57.144" height="65.307" viewBox="0 0 57.144 65.307">
  <g id="Grupo_62201" data-name="Grupo 62201" transform="translate(-2053.448 -2362.097)">
    <path id="Trazado_351" data-name="Trazado 351" d="M2065.693,2362.1a4.094,4.094,0,0,0-4.082,4.081v57.144a4.1,4.1,0,0,0,4.082,4.082h40.817a4.094,4.094,0,0,0,4.082-4.082v-44.9l-16.327-16.327Z" fill="#f2f2f2"/>
    <path id="Rectángulo_517" data-name="Rectángulo 517" d="M2.041,0h44.9a2.041,2.041,0,0,1,2.041,2.041V22.45a2.04,2.04,0,0,1-2.04,2.04H2.041A2.041,2.041,0,0,1,0,22.449V2.041A2.041,2.041,0,0,1,2.041,0Z" transform="translate(2053.448 2392.71)" fill="#007fff" opacity="0.9"/>
    <path id="Trazado_354" data-name="Trazado 354" d="M2098.347,2378.424h12.245l-16.327-16.327v12.245A4.1,4.1,0,0,0,2098.347,2378.424Z" fill="#b3b3b3"/>
    <text id="DOCX" transform="translate(2056 2410)" fill="#fff" font-size="14" font-family="Montserrat-Bold, Montserrat" font-weight="700"><tspan x="0" y="0">DOCX</tspan></text>
  </g>
</svg>
